HIERARCHY
ROOT Hips
{
    OFFSET   0.000000   0.000000   0.000000
    CHANNELS 6 Xposition Yposition Zposition Zrotation Xrotation Yrotation
    JOINT Chest
    {
        OFFSET   0.000000   8.007240   0.000000
        CHANNELS 3 Zrotation Xrotation Yrotation
        JOINT Chest2
        {
            OFFSET   0.000000  22.077100   0.000000
            CHANNELS 3 Zrotation Xrotation Yrotation
            JOINT Neck
            {
                OFFSET   0.000000  23.254800   0.000000
                CHANNELS 3 Zrotation Xrotation Yrotation
                JOINT Head
                {
                    OFFSET   0.000000  14.370000   1.956600
                    CHANNELS 3 Zrotation Xrotation Yrotation
                    End Site
                    {
                        OFFSET   0.000000  19.566000   0.000000
                    }
                }
            }
            JOINT LeftCollar
            {
                OFFSET   3.911900  19.017000  -0.467064
                CHANNELS 3 Zrotation Xrotation Yrotation
                JOINT LeftShoulder
                {
                    OFFSET  10.383700   0.000000   0.000000
                    CHANNELS 3 Zrotation Xrotation Yrotation
                    JOINT LeftElbow
                    {
                        OFFSET  26.662100   0.001476   0.000517
                        CHANNELS 3 Zrotation Xrotation Yrotation
                        JOINT LeftWrist
                        {
                            OFFSET  28.869000  -0.000025  -0.000106
                            CHANNELS 3 Zrotation Xrotation Yrotation
                            JOINT LeftFinger0
                            {
                                OFFSET   2.044660  -2.323460   3.252850
                                CHANNELS 3 Zrotation Xrotation Yrotation
                                JOINT LeftFinger01
                                {
                                    OFFSET   3.088130   0.000000   0.000000
                                    CHANNELS 3 Zrotation Xrotation Yrotation
                                    JOINT LeftFinger02
                                    {
                                        OFFSET   2.639460   0.000000   0.000000
                                        CHANNELS 3 Zrotation Xrotation Yrotation
                                        End Site
                                        {
                                            OFFSET   2.582190   0.000000   0.000000
                                        }
                                    }
                                }
                            }
                            JOINT LeftFinger1
                            {
                                OFFSET   8.364480   0.000000   3.252850
                                CHANNELS 3 Zrotation Xrotation Yrotation
                                JOINT LeftFinger11
                                {
                                    OFFSET   4.646930   0.000000   0.000000
                                    CHANNELS 3 Zrotation Xrotation Yrotation
                                    JOINT LeftFinger12
                                    {
                                        OFFSET   2.323460   0.000000   0.000000
                                        CHANNELS 3 Zrotation Xrotation Yrotation
                                        End Site
                                        {
                                            OFFSET   2.273050   0.000000   0.000000
                                        }
                                    }
                                }
                            }
                            JOINT LeftFinger2
                            {
                                OFFSET   8.364490   0.000015   1.078090
                                CHANNELS 3 Zrotation Xrotation Yrotation
                                JOINT LeftFinger21
                                {
                                    OFFSET   5.111620   0.000000   0.000000
                                    CHANNELS 3 Zrotation Xrotation Yrotation
                                    JOINT LeftFinger22
                                    {
                                        OFFSET   2.788160   0.000016   0.000000
                                        CHANNELS 3 Zrotation Xrotation Yrotation
                                        End Site
                                        {
                                            OFFSET   2.727660   0.000000   0.000000
                                        }
                                    }
                                }
                            }
                            JOINT LeftFinger3
                            {
                                OFFSET   7.899780   0.000017  -1.078090
                                CHANNELS 3 Zrotation Xrotation Yrotation
                                JOINT LeftFinger31
                                {
                                    OFFSET   4.646930   0.000000   0.000000
                                    CHANNELS 3 Zrotation Xrotation Yrotation
                                    JOINT LeftFinger32
                                    {
                                        OFFSET   2.323470   0.000000   0.000000
                                        CHANNELS 3 Zrotation Xrotation Yrotation
                                        End Site
                                        {
                                            OFFSET   2.273050   0.000000   0.000000
                                        }
                                    }
                                }
                            }
                            JOINT LeftFinger4
                            {
                                OFFSET   7.435090   0.000000  -3.252850
                                CHANNELS 3 Zrotation Xrotation Yrotation
                                JOINT LeftFinger41
                                {
                                    OFFSET   3.717550   0.000000   0.000000
                                    CHANNELS 3 Zrotation Xrotation Yrotation
                                    JOINT LeftFinger42
                                    {
                                        OFFSET   1.858770   0.000000   0.000000
                                        CHANNELS 3 Zrotation Xrotation Yrotation
                                        End Site
                                        {
                                            OFFSET   1.818440   0.000000   0.000000
                                        }
                                    }
                                }
                            }
                        }
                    }
                }
            }
            JOINT RightCollar
            {
                OFFSET  -3.911900  19.017000  -0.467063
                CHANNELS 3 Zrotation Xrotation Yrotation
                JOINT RightShoulder
                {
                    OFFSET -10.383700   0.000019   0.000000
                    CHANNELS 3 Zrotation Xrotation Yrotation
                    JOINT RightElbow
                    {
                        OFFSET -26.662100   0.001175   0.000102
                        CHANNELS 3 Zrotation Xrotation Yrotation
                        JOINT RightWrist
                        {
                            OFFSET -28.869000   0.000016  -0.000079
                            CHANNELS 3 Zrotation Xrotation Yrotation
                            JOINT RightFinger0
                            {
                                OFFSET  -2.044660  -2.323490   3.252850
                                CHANNELS 3 Zrotation Xrotation Yrotation
                                JOINT RightFinger01
                                {
                                    OFFSET  -3.088140   0.000000   0.000000
                                    CHANNELS 3 Zrotation Xrotation Yrotation
                                    JOINT RightFinger02
                                    {
                                        OFFSET  -2.639460   0.000000   0.000000
                                        CHANNELS 3 Zrotation Xrotation Yrotation
                                        End Site
                                        {
                                            OFFSET  -2.582190   0.000000   0.000000
                                        }
                                    }
                                }
                            }
                            JOINT RightFinger1
                            {
                                OFFSET  -8.364480   0.000000   3.252850
                                CHANNELS 3 Zrotation Xrotation Yrotation
                                JOINT RightFinger11
                                {
                                    OFFSET  -4.646930   0.000000   0.000000
                                    CHANNELS 3 Zrotation Xrotation Yrotation
                                    JOINT RightFinger12
                                    {
                                        OFFSET  -2.323470   0.000000   0.000000
                                        CHANNELS 3 Zrotation Xrotation Yrotation
                                        End Site
                                        {
                                            OFFSET  -2.273050   0.000000   0.000000
                                        }
                                    }
                                }
                            }
                            JOINT RightFinger2
                            {
                                OFFSET  -8.364480   0.000000   1.078090
                                CHANNELS 3 Zrotation Xrotation Yrotation
                                JOINT RightFinger21
                                {
                                    OFFSET  -5.111620   0.000000   0.000000
                                    CHANNELS 3 Zrotation Xrotation Yrotation
                                    JOINT RightFinger22
                                    {
                                        OFFSET  -2.788160   0.000000   0.000000
                                        CHANNELS 3 Zrotation Xrotation Yrotation
                                        End Site
                                        {
                                            OFFSET  -2.727660   0.000000   0.000000
                                        }
                                    }
                                }
                            }
                            JOINT RightFinger3
                            {
                                OFFSET  -7.899780   0.000000  -1.078090
                                CHANNELS 3 Zrotation Xrotation Yrotation
                                JOINT RightFinger31
                                {
                                    OFFSET  -4.646930   0.000000   0.000000
                                    CHANNELS 3 Zrotation Xrotation Yrotation
                                    JOINT RightFinger32
                                    {
                                        OFFSET  -2.323470   0.000000   0.000000
                                        CHANNELS 3 Zrotation Xrotation Yrotation
                                        End Site
                                        {
                                            OFFSET  -2.273050   0.000000   0.000000
                                        }
                                    }
                                }
                            }
                            JOINT RightFinger4
                            {
                                OFFSET  -7.435090   0.000000  -3.252850
                                CHANNELS 3 Zrotation Xrotation Yrotation
                                JOINT RightFinger41
                                {
                                    OFFSET  -3.717550   0.000000   0.000000
                                    CHANNELS 3 Zrotation Xrotation Yrotation
                                    JOINT RightFinger42
                                    {
                                        OFFSET  -1.858770   0.000000   0.000000
                                        CHANNELS 3 Zrotation Xrotation Yrotation
                                        End Site
                                        {
                                            OFFSET  -1.818440   0.000000   0.000000
                                        }
                                    }
                                }
                            }
                        }
                    }
                }
            }
        }
    }
    JOINT LeftHip
    {
        OFFSET   9.783040   0.000000   0.000000
        CHANNELS 3 Zrotation Xrotation Yrotation
        JOINT LeftKnee
        {
            OFFSET   0.000032 -41.789100  -0.002222
            CHANNELS 3 Zrotation Xrotation Yrotation
            JOINT LeftAnkle
            {
                OFFSET   0.000087 -41.133200  -0.000135
                CHANNELS 3 Zrotation Xrotation Yrotation
                JOINT LeftToe
                {
                    OFFSET   0.000000  -6.358960  14.674500
                    CHANNELS 3 Zrotation Xrotation Yrotation
                    End Site
                    {
                        OFFSET   0.000000   0.000000   3.913200
                    }
                }
            }
        }
    }
    JOINT RightHip
    {
        OFFSET  -9.783040   0.000000   0.000000
        CHANNELS 3 Zrotation Xrotation Yrotation
        JOINT RightKnee
        {
            OFFSET   0.000047 -41.789100  -0.000896
            CHANNELS 3 Zrotation Xrotation Yrotation
            JOINT RightAnkle
            {
                OFFSET  -0.000117 -41.133300  -0.000248
                CHANNELS 3 Zrotation Xrotation Yrotation
                JOINT RightToe
                {
                    OFFSET   0.000000  -6.358970  14.674500
                    CHANNELS 3 Zrotation Xrotation Yrotation
                    End Site
                    {
                        OFFSET   0.000000   0.000000   3.913200
                    }
                }
            }
        }
    }
}
MOTION
Frames: 4
Frame Time:   0.016667
  0.166002  89.501900  -0.953234  -1.987550  -3.369180   2.240260   1.912660   2.869610  -0.522479   3.858720   5.720020  -1.142840   0.217109  -0.424511   0.000504   0.356719  -0.860791   7.710210  -8.211590   1.691850  -0.311466 -67.344200  20.360100  -7.217650  -1.742850  -6.458730  -7.443970   1.493140 -10.856200   7.857060  41.161100  28.526700 -66.609800 -21.569000   0.000000   0.000112  -5.784490   0.000552   0.000000 -33.276600   6.004510  -9.055730 -27.616000   0.003468   0.002737 -19.331200   0.006996   0.008180 -28.449400   1.035160  -1.909490 -35.786800   0.011715   0.006015 -23.834000  -0.002157   0.003431 -27.787400  -3.839880   7.243470 -32.206000   0.001127   0.014739 -21.449300  -0.012472   0.006718 -32.540700  -4.428830   6.901860 -49.213300   0.002401  -0.001527 -32.776000   0.001894  -0.003346   8.186200  -1.478810  11.069600  71.358700  14.256200  -0.756117   0.875964  -5.859780   6.789950 -12.253600 -16.147500   7.637290 -46.948700  33.366200  70.095600  17.757200  -0.001328   0.000520   3.878620  -0.013048   0.007713  34.506300   9.507040  13.510400  29.155900   0.002421  -0.002753  20.409200   0.000479   0.000705  28.174700   4.132880   7.663280  35.630000  -0.012394  -0.000356  23.729600  -0.011011  -0.007052  28.594800   1.867740   3.421760  38.163300  -0.010081  -0.000382  25.416700  -0.008728  -0.005071  32.929800   0.694236   1.071420  49.404400   0.002890  -0.006092  32.903300  -0.003479   0.001781   2.085370   6.845170   1.200120   1.470540   0.002966   6.195980  -1.378030  -2.965270   3.886900   0.000000   0.000000  -0.000000   1.976840   2.557290  -3.733710   1.442630   4.661400  -5.020870  -3.305950  -3.623720  -4.620180  -0.000000   0.000000   0.000000
  0.165970  89.501800  -0.942561  -1.988080  -3.369170   2.231220   1.905550   2.869730  -0.514163   3.844060   5.720400  -1.125820   0.238075  -0.416502   0.000505   0.391037  -0.844429   7.700540  -8.252150   1.738670  -0.358054 -67.536800  20.388800  -7.128590  -1.832630  -6.352060  -7.450870   1.314050 -10.366700   7.676680  41.217400  28.344300 -66.297500 -21.388200   0.000000   0.000090  -5.694090   0.000554  -0.000000 -33.205400   6.020430  -9.102650 -27.560800   0.003468   0.002735 -19.292600   0.006995   0.008183 -28.434500   1.046060  -1.930030 -35.635500   0.011715   0.006017 -23.733300  -0.002157   0.003432 -27.778600  -3.797890   7.167760 -32.113900   0.001128   0.014738 -21.387900  -0.012475   0.006715 -32.323200  -4.355960   6.844750 -48.877100   0.002402  -0.001528 -32.552100   0.001896  -0.003344   8.178930  -1.478890  11.054500  71.278500  14.266600  -0.737471   0.867441  -5.843410   6.743060 -12.214000 -16.099900   7.609910 -46.763200  33.275000  70.108800  17.776900  -0.001327   0.000482   3.888450  -0.013050   0.007709  34.650700   9.563910  13.525700  29.279200   0.002416  -0.002761  20.495500   0.000478   0.000704  28.187700   4.141250   7.673110  35.773200  -0.012390  -0.000351  23.825000  -0.011009  -0.007048  28.597600   1.885820   3.454280  38.224600  -0.010079  -0.000380  25.457500  -0.008728  -0.005067  33.070900   0.664824   1.021220  49.615200   0.002893  -0.006089  33.043700  -0.003472   0.001782   2.085390   6.844020   1.200060   1.464180   0.021801   6.206240  -1.379570  -2.978990   3.885710  -0.000000   0.000000  -0.000000   1.977670   2.566990  -3.733660   1.431890   4.653690  -5.027500  -3.297880  -3.624150  -4.602370   0.000000   0.000000   0.000000
  0.165744  89.501800  -0.924274  -1.988610  -3.369130   2.222170   1.892740   2.870560  -0.501265   3.817740   5.722870  -1.099390   0.269956  -0.408494   0.000507   0.443624  -0.828106   7.670680  -8.320080   1.814870  -0.434948 -67.852800  20.435200  -6.986120  -1.980560  -6.166390  -7.467390   1.075950  -9.537120   7.389880  41.292000  28.074600 -65.856000 -21.148200   0.000000   0.000067  -5.574090   0.000555  -0.000000 -33.091100   6.036070  -9.166090 -27.470900   0.003465   0.002729 -19.229600   0.006992   0.008190 -28.410100   1.057120  -1.953310 -35.388700   0.011713   0.006020 -23.568900  -0.002158   0.003433 -27.762400  -3.733000   7.051430 -31.956300   0.001128   0.014736 -21.282900  -0.012487   0.006708 -32.008800  -4.246400   6.755310 -48.390600   0.002405  -0.001532 -32.228200   0.001901  -0.003341   8.163440  -1.479060  11.028700  71.141900  14.277100  -0.718823   0.854375  -5.805740   6.695910 -12.147500 -16.033600   7.570010 -46.526300  33.162600  70.096800  17.799700  -0.001320   0.000444   3.899840  -0.013054   0.007705  34.788100   9.640880  13.553400  29.402600   0.002406  -0.002776  20.581800   0.000476   0.000703  28.200600   4.149600   7.685610  35.916500  -0.012381  -0.000338  23.920400  -0.011004  -0.007039  28.600000   1.906430   3.491640  38.286000  -0.010073  -0.000373  25.498400  -0.008725  -0.005059  33.212000   0.635411   0.971024  49.826000   0.002899  -0.006078  33.184100  -0.003458   0.001786   2.085360   6.842880   1.199970   1.453180   0.050950   6.221410  -1.382160  -3.001110   3.879780  -0.000000   0.000000   0.000000   1.979260   2.586760  -3.733580   1.421050   4.637050  -5.042470  -3.285640  -3.625440  -4.575610   0.000000   0.000000   0.000000
  0.163515  89.501800  -0.908319  -1.987830  -3.369020   2.229500   1.880050   2.874660  -0.492758   3.791950   5.731700  -1.081870   0.290279  -0.409889   0.000500   0.479422  -0.831036   7.614430  -8.376530   1.874560  -0.498455 -68.096600  20.458900  -6.881380  -2.101070  -5.997770  -7.494650   0.969110  -8.790680   7.178970  41.296400  27.924100 -65.638900 -21.079100   0.000000   0.000068  -5.539550   0.000538   0.000000 -33.002000   6.028310  -9.185400 -27.398100   0.003459   0.002717 -19.178700   0.006982   0.008205 -28.389700   1.057310  -1.956500 -35.188200   0.011710   0.006023 -23.435300  -0.002160   0.003438 -27.744900  -3.690170   6.976290 -31.809600   0.001128   0.014735 -21.185100  -0.012511   0.006700 -31.838400  -4.176010   6.694060 -48.125700   0.002414  -0.001536 -32.051800   0.001908  -0.003338   8.143000  -1.479390  11.004600  71.025200  14.229900  -0.720569   0.843705  -5.751820   6.700090 -12.077400 -16.005800   7.556990 -46.456200  33.114300  70.024900  17.802800  -0.001304   0.000473   3.901430  -0.013061   0.007707  34.775300   9.664840  13.577200  29.399300   0.002396  -0.002790  20.579500   0.000463   0.000705  28.197000   4.149530   7.688720  35.876500  -0.012369  -0.000318  23.893800  -0.010994  -0.007027  28.599400   1.909390   3.497280  38.282100  -0.010062  -0.000359  25.495800  -0.008715  -0.005050  33.208600   0.636357   0.972282  49.820900   0.002904  -0.006057  33.180700  -0.003438   0.001789   2.085060   6.843340   1.199940   1.441050   0.073376   6.230770  -1.384550  -3.020990   3.866010  -0.000000   0.000000   0.000000   1.981120   2.611150  -3.733490   1.420880   4.614200  -5.063830  -3.277540  -3.627800  -4.557610   0.000000   0.000000   0.000000
